<svg width="24" height="24" viewBox="0 0 24 24" fill="none" xmlns="http://www.w3.org/2000/svg">
<path fill-rule="evenodd" clip-rule="evenodd" d="M9.89279 6.01708C10.829 4.39437 13.171 4.39437 14.1072 6.01708L20.0708 16.3541C21.0065 17.9759 19.836 20.0025 17.9636 20.0025H6.03632C4.16396 20.0025 2.99348 17.9759 3.92913 16.3541L9.89279 6.01708ZM12.0001 10.2716C12.336 10.2716 12.6083 10.5439 12.6083 10.8798V13.9206C12.6083 14.2565 12.336 14.5288 12.0001 14.5288C11.6643 14.5288 11.392 14.2565 11.392 13.9206V10.8798C11.392 10.5439 11.6643 10.2716 12.0001 10.2716ZM12.0001 16.9615C12.336 16.9615 12.6083 16.6893 12.6083 16.3534C12.6083 16.0175 12.336 15.7452 12.0001 15.7452C11.6643 15.7452 11.392 16.0175 11.392 16.3534C11.392 16.6893 11.6643 16.9615 12.0001 16.9615Z" fill="#46464F"/>
</svg>
