<svg width="24" height="24" viewBox="0 0 24 24" fill="none" xmlns="http://www.w3.org/2000/svg">
<path fill-rule="evenodd" clip-rule="evenodd" d="M9.89279 6.01704C10.829 4.39433 13.171 4.39433 14.1072 6.01704L20.0708 16.354C21.0065 17.9759 19.836 20.0024 17.9636 20.0024H6.03632C4.16396 20.0024 2.99348 17.9759 3.92913 16.354L9.89279 6.01704ZM12.0001 10.2715C12.336 10.2715 12.6083 10.5438 12.6083 10.8797V13.9206C12.6083 14.2565 12.336 14.5288 12.0001 14.5288C11.6643 14.5288 11.392 14.2565 11.392 13.9206V10.8797C11.392 10.5438 11.6643 10.2715 12.0001 10.2715ZM12.0001 16.9615C12.336 16.9615 12.6083 16.6892 12.6083 16.3533C12.6083 16.0174 12.336 15.7451 12.0001 15.7451C11.6643 15.7451 11.392 16.0174 11.392 16.3533C11.392 16.6892 11.6643 16.9615 12.0001 16.9615Z" fill="#46464F"/>
</svg>
