<svg width="24" height="24" viewBox="0 0 24 24" fill="none" xmlns="http://www.w3.org/2000/svg">
<path fill-rule="evenodd" clip-rule="evenodd" d="M4.91703 10.6498C5.98738 6.65518 10.0933 4.28461 14.0879 5.35496C15.4068 5.70835 16.5468 6.39144 17.4452 7.29154L19.3452 9.19157H16.1666C15.7531 9.19157 15.4178 9.52682 15.4178 9.94037C15.4178 10.3539 15.7531 10.6892 16.1666 10.6892H21.1512C21.3498 10.6892 21.5403 10.6103 21.6807 10.4698C21.8212 10.3294 21.9001 10.1389 21.9 9.94026V4.95575C21.9 4.5422 21.5648 4.20695 21.1512 4.20695C20.7377 4.20695 20.4024 4.5422 20.4024 4.95575V8.13083L18.5052 6.23357C17.4257 5.15222 16.0554 4.33171 14.4755 3.90838C9.68202 2.62396 4.75488 5.46865 3.47046 10.2622C3.36343 10.6616 3.60048 11.0722 3.99994 11.1793C4.3994 11.2863 4.81 11.0492 4.91703 10.6498ZM20.2998 13.9964C19.9004 13.8893 19.4898 14.1264 19.3828 14.5259C18.3124 18.5205 14.2065 20.891 10.2119 19.8207C8.89299 19.4673 7.75302 18.7842 6.85461 17.8841L4.95576 15.984H8.13348C8.54704 15.984 8.88229 15.6488 8.88229 15.2352C8.88229 14.8217 8.54704 14.4864 8.13348 14.4864L3.14883 14.4864C2.73527 14.4864 2.40002 14.8217 2.40002 15.2352V20.2199C2.40002 20.6334 2.73527 20.9687 3.14883 20.9687C3.56238 20.9687 3.89763 20.6334 3.89763 20.2199V17.0438L5.79466 18.9421C6.87412 20.0236 8.24425 20.8439 9.82425 21.2673C14.6178 22.5517 19.5449 19.707 20.8293 14.9135C20.9364 14.514 20.6993 14.1034 20.2998 13.9964Z" fill="#3952CD"/>
</svg>
