<svg width="24" height="24" viewBox="0 0 24 24" fill="none" xmlns="http://www.w3.org/2000/svg">
<path fill-rule="evenodd" clip-rule="evenodd" d="M4.91703 10.6499C5.98738 6.6553 10.0933 4.28473 14.0879 5.35508C15.4068 5.70847 16.5468 6.39156 17.4452 7.29166L19.3452 9.19169H16.1666C15.7531 9.19169 15.4178 9.52694 15.4178 9.94049C15.4178 10.354 15.7531 10.6893 16.1666 10.6893H21.1512C21.3498 10.6893 21.5403 10.6104 21.6807 10.4699C21.8212 10.3295 21.9001 10.139 21.9 9.94039V4.95587C21.9 4.54232 21.5648 4.20707 21.1512 4.20707C20.7377 4.20707 20.4024 4.54232 20.4024 4.95587V8.13095L18.5052 6.23369C17.4257 5.15234 16.0554 4.33183 14.4755 3.90851C9.68202 2.62409 4.75488 5.46877 3.47046 10.2623C3.36343 10.6618 3.60048 11.0723 3.99994 11.1794C4.3994 11.2864 4.81 11.0494 4.91703 10.6499ZM20.2998 13.9965C19.9004 13.8895 19.4898 14.1265 19.3828 14.526C18.3124 18.5206 14.2065 20.8912 10.2119 19.8208C8.89299 19.4674 7.75302 18.7843 6.85461 17.8842L4.95576 15.9842H8.13348C8.54704 15.9842 8.88229 15.6489 8.88229 15.2354C8.88229 14.8218 8.54704 14.4866 8.13348 14.4866L3.14883 14.4866C2.73527 14.4866 2.40002 14.8218 2.40002 15.2354V20.22C2.40002 20.6336 2.73527 20.9688 3.14883 20.9688C3.56238 20.9688 3.89763 20.6336 3.89763 20.22V17.044L5.79466 18.9422C6.87412 20.0237 8.24425 20.844 9.82425 21.2674C14.6178 22.5518 19.5449 19.7071 20.8293 14.9136C20.9364 14.5141 20.6993 14.1035 20.2998 13.9965Z" fill="#3952CD"/>
</svg>
